<svg xmlns="http://www.w3.org/2000/svg" viewBox="0 0 900 560" width="900" height="560" font-family="ui-monospace, 'SF Mono', Menlo, monospace">
  <!-- Background -->
  <rect width="900" height="560" fill="#0f1117"/>

  <!-- Sidebar -->
  <rect x="0" y="0" width="200" height="560" fill="#161b22"/>
  <text x="20" y="32" fill="#e6edf3" font-size="14" font-weight="bold">⚡ vellic</text>
  <text x="20" y="32" fill="#58a6ff" font-size="14" font-weight="bold">⚡</text>
  <text x="35" y="32" fill="#e6edf3" font-size="14" font-weight="bold"> vellic</text>

  <!-- Nav items -->
  <rect x="8" y="50" width="184" height="28" rx="4" fill="#1f6feb"/>
  <text x="20" y="68" fill="#ffffff" font-size="12">📊 Dashboard</text>
  <text x="20" y="100" fill="#8b949e" font-size="12">📬 Deliveries</text>
  <text x="20" y="124" fill="#8b949e" font-size="12">⚙️  Jobs</text>
  <text x="20" y="148" fill="#8b949e" font-size="12">📁 Repositories</text>
  <text x="20" y="172" fill="#8b949e" font-size="12">🔧 Settings</text>

  <!-- Divider -->
  <line x1="200" y1="0" x2="200" y2="560" stroke="#30363d" stroke-width="1"/>

  <!-- Top bar -->
  <rect x="200" y="0" width="700" height="48" fill="#161b22"/>
  <line x1="200" y1="48" x2="900" y2="48" stroke="#30363d" stroke-width="1"/>
  <text x="224" y="28" fill="#e6edf3" font-size="14" font-weight="bold">Dashboard</text>
  <rect x="740" y="12" width="140" height="24" rx="4" fill="#1f6feb"/>
  <text x="810" y="28" fill="#ffffff" font-size="11" text-anchor="middle">Replay delivery</text>

  <!-- Metric cards row -->
  <!-- PRs reviewed -->
  <rect x="216" y="64" width="160" height="80" rx="6" fill="#161b22" stroke="#30363d" stroke-width="1"/>
  <text x="236" y="90" fill="#8b949e" font-size="11">PRs reviewed (7d)</text>
  <text x="236" y="118" fill="#e6edf3" font-size="28" font-weight="bold">247</text>
  <text x="236" y="134" fill="#3fb950" font-size="11">↑ 12% vs prev week</text>

  <!-- Avg latency -->
  <rect x="392" y="64" width="160" height="80" rx="6" fill="#161b22" stroke="#30363d" stroke-width="1"/>
  <text x="412" y="90" fill="#8b949e" font-size="11">Latency p50 / p95</text>
  <text x="412" y="118" fill="#e6edf3" font-size="22" font-weight="bold">4.2s</text>
  <text x="466" y="118" fill="#8b949e" font-size="14"> / 11.8s</text>
  <text x="412" y="134" fill="#8b949e" font-size="11">p50 stable</text>

  <!-- Failure rate -->
  <rect x="568" y="64" width="160" height="80" rx="6" fill="#161b22" stroke="#30363d" stroke-width="1"/>
  <text x="588" y="90" fill="#8b949e" font-size="11">Failure rate (7d)</text>
  <text x="588" y="118" fill="#e6edf3" font-size="28" font-weight="bold">0.8%</text>
  <text x="588" y="134" fill="#3fb950" font-size="11">↓ from 1.2%</text>

  <!-- Provider -->
  <rect x="744" y="64" width="140" height="80" rx="6" fill="#161b22" stroke="#30363d" stroke-width="1"/>
  <text x="764" y="90" fill="#8b949e" font-size="11">LLM Provider</text>
  <text x="764" y="116" fill="#e6edf3" font-size="14" font-weight="bold">Ollama</text>
  <text x="764" y="134" fill="#8b949e" font-size="11">llama3.1:8b · local</text>

  <!-- Recent jobs table -->
  <rect x="216" y="160" width="484" height="248" rx="6" fill="#161b22" stroke="#30363d" stroke-width="1"/>
  <text x="232" y="184" fill="#e6edf3" font-size="13" font-weight="bold">Recent Jobs</text>
  <!-- Table header -->
  <line x1="216" y1="194" x2="700" y2="194" stroke="#30363d" stroke-width="1"/>
  <text x="232" y="210" fill="#8b949e" font-size="11">PR</text>
  <text x="332" y="210" fill="#8b949e" font-size="11">Repo</text>
  <text x="462" y="210" fill="#8b949e" font-size="11">Status</text>
  <text x="562" y="210" fill="#8b949e" font-size="11">Duration</text>
  <text x="640" y="210" fill="#8b949e" font-size="11">Time</text>
  <line x1="216" y1="216" x2="700" y2="216" stroke="#30363d" stroke-width="1"/>

  <!-- Row 1 -->
  <text x="232" y="233" fill="#58a6ff" font-size="11">#1482</text>
  <text x="332" y="233" fill="#e6edf3" font-size="11">acme/api</text>
  <rect x="456" y="222" width="56" height="16" rx="8" fill="#1a4731"/>
  <text x="484" y="233" fill="#3fb950" font-size="10" text-anchor="middle">done</text>
  <text x="562" y="233" fill="#e6edf3" font-size="11">5.1s</text>
  <text x="640" y="233" fill="#8b949e" font-size="11">2 min ago</text>

  <!-- Row 2 -->
  <text x="232" y="253" fill="#58a6ff" font-size="11">#1481</text>
  <text x="332" y="253" fill="#e6edf3" font-size="11">acme/frontend</text>
  <rect x="456" y="242" width="56" height="16" rx="8" fill="#1a4731"/>
  <text x="484" y="253" fill="#3fb950" font-size="10" text-anchor="middle">done</text>
  <text x="562" y="253" fill="#e6edf3" font-size="11">4.7s</text>
  <text x="640" y="253" fill="#8b949e" font-size="11">8 min ago</text>

  <!-- Row 3 - failed -->
  <text x="232" y="273" fill="#58a6ff" font-size="11">#1480</text>
  <text x="332" y="273" fill="#e6edf3" font-size="11">acme/infra</text>
  <rect x="456" y="262" width="56" height="16" rx="8" fill="#4d1414"/>
  <text x="484" y="273" fill="#f85149" font-size="10" text-anchor="middle">failed</text>
  <text x="562" y="273" fill="#e6edf3" font-size="11">12.4s</text>
  <text x="640" y="273" fill="#8b949e" font-size="11">15 min ago</text>

  <!-- Row 4 -->
  <text x="232" y="293" fill="#58a6ff" font-size="11">#1479</text>
  <text x="332" y="293" fill="#e6edf3" font-size="11">acme/api</text>
  <rect x="456" y="282" width="56" height="16" rx="8" fill="#1a4731"/>
  <text x="484" y="293" fill="#3fb950" font-size="10" text-anchor="middle">done</text>
  <text x="562" y="293" fill="#e6edf3" font-size="11">3.9s</text>
  <text x="640" y="293" fill="#8b949e" font-size="11">22 min ago</text>

  <!-- Row 5 -->
  <text x="232" y="313" fill="#58a6ff" font-size="11">#1478</text>
  <text x="332" y="313" fill="#e6edf3" font-size="11">acme/worker</text>
  <rect x="456" y="302" width="56" height="16" rx="8" fill="#1a4731"/>
  <text x="484" y="313" fill="#3fb950" font-size="10" text-anchor="middle">done</text>
  <text x="562" y="313" fill="#e6edf3" font-size="11">6.3s</text>
  <text x="640" y="313" fill="#8b949e" font-size="11">31 min ago</text>

  <!-- Row 6 -->
  <text x="232" y="333" fill="#58a6ff" font-size="11">#1477</text>
  <text x="332" y="333" fill="#e6edf3" font-size="11">acme/api</text>
  <rect x="456" y="322" width="56" height="16" rx="8" fill="#1a4731"/>
  <text x="484" y="333" fill="#3fb950" font-size="10" text-anchor="middle">done</text>
  <text x="562" y="333" fill="#e6edf3" font-size="11">4.1s</text>
  <text x="640" y="333" fill="#8b949e" font-size="11">45 min ago</text>

  <!-- Row 7 -->
  <text x="232" y="353" fill="#58a6ff" font-size="11">#1476</text>
  <text x="332" y="353" fill="#e6edf3" font-size="11">acme/frontend</text>
  <rect x="456" y="342" width="56" height="16" rx="8" fill="#1a4731"/>
  <text x="484" y="353" fill="#3fb950" font-size="10" text-anchor="middle">done</text>
  <text x="562" y="353" fill="#e6edf3" font-size="11">5.8s</text>
  <text x="640" y="353" fill="#8b949e" font-size="11">1 hr ago</text>

  <!-- Row 8 -->
  <text x="232" y="373" fill="#58a6ff" font-size="11">#1475</text>
  <text x="332" y="373" fill="#e6edf3" font-size="11">acme/infra</text>
  <rect x="456" y="362" width="56" height="16" rx="8" fill="#1a4731"/>
  <text x="484" y="373" fill="#3fb950" font-size="10" text-anchor="middle">done</text>
  <text x="562" y="373" fill="#e6edf3" font-size="11">4.4s</text>
  <text x="640" y="373" fill="#8b949e" font-size="11">1 hr ago</text>

  <!-- Delivery / Provider panel -->
  <rect x="716" y="160" width="168" height="248" rx="6" fill="#161b22" stroke="#30363d" stroke-width="1"/>
  <text x="732" y="184" fill="#e6edf3" font-size="13" font-weight="bold">Provider</text>
  <line x1="716" y1="194" x2="884" y2="194" stroke="#30363d" stroke-width="1"/>

  <text x="732" y="218" fill="#8b949e" font-size="11">Name</text>
  <text x="732" y="232" fill="#e6edf3" font-size="11" font-weight="bold">Ollama</text>

  <text x="732" y="254" fill="#8b949e" font-size="11">Model</text>
  <text x="732" y="268" fill="#e6edf3" font-size="11">llama3.1:8b-q4</text>

  <text x="732" y="290" fill="#8b949e" font-size="11">Base URL</text>
  <text x="732" y="304" fill="#e6edf3" font-size="10">http://ollama:11434</text>

  <text x="732" y="326" fill="#8b949e" font-size="11">Data leaves infra</text>
  <text x="732" y="340" fill="#3fb950" font-size="11">No ✓</text>

  <rect x="732" y="356" width="120" height="24" rx="4" fill="#238636"/>
  <text x="792" y="371" fill="#ffffff" font-size="11" text-anchor="middle">Change provider</text>

  <!-- Volume chart area -->
  <rect x="216" y="424" width="668" height="112" rx="6" fill="#161b22" stroke="#30363d" stroke-width="1"/>
  <text x="232" y="448" fill="#e6edf3" font-size="13" font-weight="bold">PR Volume — last 7 days</text>
  <!-- Simple bar chart -->
  <rect x="240" y="512" width="20" height="24" fill="#1f6feb" rx="2"/>
  <rect x="272" y="500" width="20" height="36" fill="#1f6feb" rx="2"/>
  <rect x="304" y="484" width="20" height="52" fill="#1f6feb" rx="2"/>
  <rect x="336" y="494" width="20" height="42" fill="#1f6feb" rx="2"/>
  <rect x="368" y="476" width="20" height="60" fill="#1f6feb" rx="2"/>
  <rect x="400" y="468" width="20" height="68" fill="#1f6feb" rx="2"/>
  <rect x="432" y="480" width="20" height="56" fill="#1f6feb" rx="2"/>
  <text x="245" y="524" fill="#8b949e" font-size="9" text-anchor="middle">Mon</text>
  <text x="277" y="524" fill="#8b949e" font-size="9" text-anchor="middle">Tue</text>
  <text x="309" y="524" fill="#8b949e" font-size="9" text-anchor="middle">Wed</text>
  <text x="341" y="524" fill="#8b949e" font-size="9" text-anchor="middle">Thu</text>
  <text x="373" y="524" fill="#8b949e" font-size="9" text-anchor="middle">Fri</text>
  <text x="405" y="524" fill="#8b949e" font-size="9" text-anchor="middle">Sat</text>
  <text x="437" y="524" fill="#8b949e" font-size="9" text-anchor="middle">Sun</text>
</svg>
